<?xml version="1.0" encoding="UTF-8" standalone="no"?>
<svg
   width="320"
   height="99.99617772903852"
   viewBox="0 0 320 99.99617772903852"
   class="css-1j8o68f"
   version="1.1"
   id="svg1892"
   sodipodi:docname="psacess_logo.svg"
   inkscape:version="1.2 (dc2aedaf03, 2022-05-15)"
   xmlns:inkscape="http://www.inkscape.org/namespaces/inkscape"
   xmlns:sodipodi="http://sodipodi.sourceforge.net/DTD/sodipodi-0.dtd"
   xmlns="http://www.w3.org/2000/svg"
   xmlns:svg="http://www.w3.org/2000/svg">
  <sodipodi:namedview
     id="namedview1894"
     pagecolor="#ffffff"
     bordercolor="#111111"
     borderopacity="1"
     inkscape:showpageshadow="0"
     inkscape:pageopacity="0"
     inkscape:pagecheckerboard="1"
     inkscape:deskcolor="#d1d1d1"
     showgrid="false"
     inkscape:zoom="2.4609375"
     inkscape:cx="131.25079"
     inkscape:cy="65.219048"
     inkscape:window-width="1920"
     inkscape:window-height="986"
     inkscape:window-x="-11"
     inkscape:window-y="-11"
     inkscape:window-maximized="1"
     inkscape:current-layer="svg1892" />
  <defs
     id="SvgjsDefs5686">
    <linearGradient
       id="SvgjsLinearGradient5691">
      <stop
         id="SvgjsStop5692"
         stop-color="#2d388a"
         offset="0" />
      <stop
         id="SvgjsStop5693"
         stop-color="#00aeef"
         offset="1" />
    </linearGradient>
    <linearGradient
       id="SvgjsLinearGradient5694">
      <stop
         id="SvgjsStop5695"
         stop-color="#2d388a"
         offset="0" />
      <stop
         id="SvgjsStop5696"
         stop-color="#00aeef"
         offset="1" />
    </linearGradient>
  </defs>
  <g
     id="SvgjsG5687"
     featurekey="odWo6G-0"
     transform="matrix(0.9999854280687895,0,0,0.9999854280687895,0.0012080338534270832,0.0002508126903363148)"
     fill="url(#SvgjsLinearGradient5691)">
    <path
       d="M88.895,11.105c-14.807-14.807-38.812-14.807-53.619,0c-14.807,14.806-14.807,38.812,0,53.619  c14.807,14.807,38.812,14.807,53.619,0S103.702,25.912,88.895,11.105z M84.662,60.492c-12.469,12.468-32.684,12.468-45.153,0  c-12.468-12.469-12.468-32.685,0-45.153c12.469-12.468,32.685-12.469,45.153,0S97.13,48.022,84.662,60.492z"
       id="path1884" />
    <rect
       x="12.357"
       y="61.701"
       transform="matrix(0.7071 0.7071 -0.7071 0.7071 63.1103 10.9445)"
       width="11.973"
       height="39.91"
       id="rect1886" />
  </g>
  <g
     id="SvgjsG5688"
     featurekey="VGK2BT-0"
     transform="matrix(2.573617553347213,0,0,2.573617553347213,116.94686646668927,16.68628690400712)"
     fill="url(#SvgjsLinearGradient5694)">
    <path
       d="M6.4744 6.441000000000001 c2.9492 0 4.6442 2.4915 4.6442 4.5424 c0 2.1695 -1.6949 4.5763 -4.6441 4.5763 l-3.3729 0 l0 4.1525 c0 0.18644 -0.10153 0.28797 -0.27119 0.28797 l-1.3729 0 c-0.16949 0 -0.27119 -0.10153 -0.27119 -0.28797 l0 -13 c0 -0.15254 0.10169 -0.27119 0.27119 -0.27119 l5.0168 0 z M6.3222 13.712 c1.8644 0 2.8983 -1.3729 2.8983 -2.7288 c0 -1.339 -1.0339 -2.6949 -2.8983 -2.6949 l-3.2203 0 l0 5.4237 l3.2203 0 z M12.474578644067796 17.678 l0.74576 -0.84763 c0.18644 -0.20339 0.38983 -0.20339 0.5422 -0.084746 c0.4578 0.38983 1.6103 1.5424 3.1527 1.5424 c1.6949 0 2.7119 -0.81356 2.7119 -1.9322 c0 -1.3898 -1.5257 -1.7797 -2.9834 -2.339 c-2.2203 -0.88136 -3.9831 -1.8644 -3.9831 -3.9831 c0 -1.7288 1.2712 -3.6949 4.322 -3.6949 c2.0847 0 3.5932 1.2034 4.0169 1.6102 c0.15254 0.15254 0.23729 0.35593 0.10169 0.52542 l-0.66102 0.86441 c-0.13559 0.18661 -0.32203 0.25441 -0.54237 0.10186 c-0.44068 -0.33898 -1.4915 -1.2881 -2.8983 -1.2881 c-1.5254 0 -2.4237 0.84746 -2.4237 1.8814 c0 1.1695 1.1186 1.6441 2.712 2.2542 c2.0339 0.81356 4.2373 1.7627 4.2373 4.0847 c0 1.9831 -1.8981 3.7456 -4.5931 3.7456 c-2.4407 0 -3.9492 -1.5761 -4.3729 -1.9829 c-0.13559 -0.11864 -0.25424 -0.27102 -0.084746 -0.45763 z M36.119 19.69492 c0.08458 0.16966 0.033898 0.30508 -0.15254 0.30508 l-1.5424 0 c-0.15254 0 -0.23712 -0.067631 -0.28797 -0.18644 l-1.0508 -2.2034 l-7.3051 0 l-1.0339 2.2034 c-0.067797 0.11881 -0.15254 0.18644 -0.28814 0.18644 l-1.5593 0 c-0.16949 0 -0.25424 -0.13543 -0.18644 -0.30508 l6.3898 -13.186 c0.050847 -0.11864 0.13559 -0.15254 0.22034 -0.15254 l0.22017 0 c0.084746 0 0.15254 0.033898 0.22034 0.15254 z M26.6103 15.8646 l5.6441 0 l-2.8136 -6 z M44.79645762711864 18.4746 c0.10169 0.15254 0.10136 0.27119 -0.01728 0.39 c-0.74576 0.71186 -1.7288 1.2541 -2.9153 1.2541 c-2.339 0 -4.339 -1.8812 -4.339 -4.288 c0 -2.4237 2 -4.339 4.339 -4.339 c1.1864 0 2.1525 0.49153 2.8475 1.1864 c0.11864 0.11881 0.11864 0.25441 0.016949 0.38983 l-0.64407 0.81356 c-0.10169 0.13559 -0.20339 0.15254 -0.40678 0.016949 c-0.42373 -0.42373 -1 -0.67797 -1.7627 -0.67797 c-1.61 0 -2.61 1.2542 -2.61 2.5932 c0 1.322 1 2.5932 2.6271 2.5932 c0.76271 0 1.3051 -0.28814 1.7966 -0.77966 c0.18644 -0.15254 0.30525 -0.10169 0.4239 0.033898 z M53.25408474576271 18.4746 c0.10169 0.15254 0.10136 0.27119 -0.01728 0.39 c-0.74576 0.71186 -1.7288 1.2541 -2.9153 1.2541 c-2.339 0 -4.339 -1.8812 -4.339 -4.288 c0 -2.4237 2 -4.339 4.339 -4.339 c1.1864 0 2.1525 0.49153 2.8475 1.1864 c0.11864 0.11881 0.11864 0.25441 0.016949 0.38983 l-0.64407 0.81356 c-0.10169 0.13559 -0.20339 0.15254 -0.40678 0.016949 c-0.42373 -0.42373 -1 -0.67797 -1.7627 -0.67797 c-1.61 0 -2.61 1.2542 -2.61 2.5932 c0 1.322 1 2.5932 2.6271 2.5932 c0.76271 0 1.3051 -0.28814 1.7966 -0.77966 c0.18644 -0.15254 0.30525 -0.10169 0.4239 0.033898 z M61.745755932203394 16.4915 c0.61 0 1.0336 -0.30508 1.0336 -1.0169 c0 -2.0847 -1.6102 -3.9831 -4.0847 -3.9831 c-2.3559 0 -4.2034 1.8644 -4.2034 4.3051 c0 2.5422 1.9322 4.288 4.3051 4.288 c1.5085 0 2.6949 -0.61017 3.4237 -1.5932 c0.10186 -0.13559 0.067963 -0.23729 -0.033568 -0.37288 l-0.32203 -0.42373 c-0.13559 -0.16933 -0.27119 -0.15254 -0.44085 -0.050847 c-0.5422 0.44068 -1.4405 0.81373 -2.4236 0.81373 c-1.3898 0 -2.3729 -0.84746 -2.5593 -1.9661 l5.3051 0 z M56.44055593220339 15.050799999999999 c0.067797 -0.81356 0.83051 -1.8644 2.2203 -1.8644 c1.4068 0 2.1356 1.0678 2.1864 1.8644 l-4.4068 0 z M64.22016966101695 18.7798 l0.5761 -0.91508 c0.11864 -0.18661 0.22034 -0.23746 0.38983 -0.15271 c0.016949 0.033898 1.0508 0.64407 2.1864 0.64407 c0.98305 0 1.322 -0.38983 1.322 -0.77966 c0 -0.57627 -0.62712 -0.77949 -1.7627 -1.0676 c-1.6102 -0.42373 -2.678 -1.2542 -2.678 -2.5424 c0 -1.2712 1.0847 -2.4576 3.1186 -2.4576 c1.2373 0 2.0847 0.42373 2.7627 0.81356 c0.16949 0.10169 0.25424 0.25424 0.15254 0.38983 l-0.62712 0.9661 c-0.084746 0.13559 -0.22034 0.18644 -0.37288 0.13559 c-0.44068 -0.22017 -1.1525 -0.54237 -1.9153 -0.54237 c-0.94915 0 -1.2034 0.47458 -1.2034 0.76271 c0 0.49153 0.71186 0.72881 1.5763 0.96593 c1.5086 0.40678 3.0171 1.1356 3.0171 2.6102 c0 1.4237 -1.3558 2.5083 -3.3898 2.5083 c-1.3898 0 -2.6441 -0.6778 -3.0678 -1.0168 c-0.11864 -0.067797 -0.15254 -0.23729 -0.084746 -0.32203 z M72.35576288135593 18.7798 l0.5761 -0.91508 c0.11864 -0.18661 0.22034 -0.23746 0.38983 -0.15271 c0.016949 0.033898 1.0508 0.64407 2.1864 0.64407 c0.98305 0 1.322 -0.38983 1.322 -0.77966 c0 -0.57627 -0.62712 -0.77949 -1.7627 -1.0676 c-1.6102 -0.42373 -2.678 -1.2542 -2.678 -2.5424 c0 -1.2712 1.0847 -2.4576 3.1186 -2.4576 c1.2373 0 2.0847 0.42373 2.7627 0.81356 c0.16949 0.10169 0.25424 0.25424 0.15254 0.38983 l-0.62712 0.9661 c-0.084746 0.13559 -0.22034 0.18644 -0.37288 0.13559 c-0.44068 -0.22017 -1.1525 -0.54237 -1.9153 -0.54237 c-0.94915 0 -1.2034 0.47458 -1.2034 0.76271 c0 0.49153 0.71186 0.72881 1.5763 0.96593 c1.5086 0.40678 3.0171 1.1356 3.0171 2.6102 c0 1.4237 -1.3558 2.5083 -3.3898 2.5083 c-1.3898 0 -2.6441 -0.6778 -3.0678 -1.0168 c-0.11864 -0.067797 -0.15254 -0.23729 -0.084746 -0.32203 z"
       id="path1889" />
  </g>
</svg>
